<svg width="680" height="680" viewBox="0 0 680 680" xmlns="http://www.w3.org/2000/svg">
<circle cx="340" cy="340" r="300" fill="#0d1117" stroke="#3fb950" stroke-width="22"/>
<circle cx="340" cy="340" r="276" fill="none" stroke="#1f6f37" stroke-width="3"/>
<circle cx="340" cy="260" r="135" fill="#f5f7fa" stroke="#0d1117" stroke-width="3"/>
<g stroke="#11161d" stroke-width="9" stroke-linecap="round">
<line x1="340" y1="214" x2="340" y2="125"/>
<line x1="383.75" y1="245.79" x2="468.4" y2="218.3"/>
<line x1="367.05" y1="297.21" x2="419.4" y2="369.2"/>
<line x1="312.95" y1="297.21" x2="260.6" y2="369.2"/>
<line x1="296.25" y1="245.79" x2="211.6" y2="218.3"/>
</g>
<polygon points="340,214 383.75,245.79 367.05,297.21 312.95,297.21 296.25,245.79" fill="#11161d"/>
<circle cx="340" cy="125" r="11" fill="#11161d"/>
<circle cx="468.4" cy="218.3" r="11" fill="#11161d"/>
<circle cx="419.4" cy="369.2" r="11" fill="#11161d"/>
<circle cx="260.6" cy="369.2" r="11" fill="#11161d"/>
<circle cx="211.6" cy="218.3" r="11" fill="#11161d"/>
<text x="340" y="505" text-anchor="middle" font-family="-apple-system, BlinkMacSystemFont, Segoe UI, Roboto, Helvetica, Arial, sans-serif" font-size="118" font-weight="700" fill="#f5f7fa" letter-spacing="2">Onze</text>
<rect x="237" y="540" width="34" height="34" rx="7" fill="#3fb950"/>
<rect x="280" y="540" width="34" height="34" rx="7" fill="#3fb950"/>
<rect x="323" y="540" width="34" height="34" rx="7" fill="#e5534b"/>
<rect x="366" y="540" width="34" height="34" rx="7" fill="#3fb950"/>
<rect x="409" y="540" width="34" height="34" rx="7" fill="#3fb950"/>
</svg>
